<?xml version="1.0" encoding="utf-8"?>
<!-- Generator: Adobe Illustrator 23.0.1, SVG Export Plug-In . SVG Version: 6.00 Build 0)  -->
<svg version="1.1" id="Layer_1" xmlns="http://www.w3.org/2000/svg" xmlns:xlink="http://www.w3.org/1999/xlink" x="0px" y="0px"
	 viewBox="0 0 560 560" style="enable-background:new 0 0 560 560;" xml:space="preserve">
<style type="text/css">
	.st0{fill:#8597FF;}
	.st1{fill:#FFFFFF;}
	.st2{fill:#F7316A;}
</style>
<g>
	<g>
		<path class="st0" d="M35.87,528.24l82.03-182.3h314.9l91.15,182.3H35.87z M207.95,517.04h295.53l-23.88-47.76l-2.08,1.01
			c-11.97,5.81-41.6,19.47-58.11,20.87c-5.25,0.45-8.93,1.04-12.5,1.61c-5.71,0.92-11.1,1.78-22.22,1.78
			c-9.91,0-23.71-0.7-42.19-2.14c-22.02-1.71-40.32-11.98-63.17-35.43c-7.12-7.31-13.54-14.84-19.74-22.13
			c-16.3-19.14-30.38-35.68-49-38.18l-2.65-0.36V517.04z M143.62,416.42c-1.78,0.84-25.92,12.02-46.38,13.49l-1.39,0.1l-39.16,87.02
			h141.58V396.15l-2.53,0.21c-23.29,1.93-43.95,14.5-51.75,19.81C143.83,416.28,143.71,416.37,143.62,416.42z M207.95,386.13
			l2.22,0.11c22.93,1.17,41.09,23.32,58.64,44.74c6.35,7.75,12.35,15.06,18.45,21.22c19.08,19.24,37.63,30.01,53.64,31.14
			c18.72,1.32,32.66,2.14,44.32,2.14c11.7,0,20.9-0.82,31.94-2.15c20.86-2.51,46.41-15.56,56.43-21.05l1.97-1.08L448,406.09
			l-1.58,0.13c-9.03,0.76-22.75,1.66-36.79,1.66c-19.68,0-33.81-1.74-41.99-5.18c-17.85-7.5-21.14-32.82-21.72-43.36l-0.12-2.21
			H207.95V386.13z M99.89,421.05l4.43-0.86c10.68-2.08,26.65-7.66,38.23-15.46c15.54-10.46,33.06-16.36,53.59-18.03l2.15-0.17
			v-29.38h-69.63L99.89,421.05z M358.06,359.57c0.6,14.72,1.35,33.03,24.61,37.33c6.62,1.22,15.32,1.84,25.85,1.84
			c11.71,0,23.6-0.77,31.51-1.42l3.45-0.28l-19.95-39.9h-65.57L358.06,359.57z"/>
	</g>
	<g>
		<path class="st1" d="M431.36,348.28l88.81,177.62H39.49l79.93-177.62H431.36 M408.52,401.08c11.79,0,23.75-0.78,31.7-1.43
			l6.89-0.56l-3.09-6.19l-17.76-35.51l-1.29-2.58h-2.89h-61.69h-4.87l0.2,4.86c0.6,14.73,1.42,34.9,26.52,39.53
			C389,400.44,397.84,401.08,408.52,401.08 M385.22,487.82c11.82,0,21.09-0.83,32.22-2.17c20.51-2.47,44.68-14.42,57.27-21.32
			l3.95-2.16l-2.01-4.02l-25.84-51.68l-1.42-2.83l-3.16,0.26c-8.99,0.75-22.64,1.65-36.6,1.65c-19.1,0-33.3-1.73-41.08-5
			c-16.64-6.99-19.74-31.23-20.3-41.33L348,354.8h-4.42H210.29h-4.67v4.67v24.43v4.44l4.44,0.23c21.9,1.12,39.72,22.86,56.96,43.89
			c6.39,7.79,12.42,15.15,18.59,21.38c19.49,19.65,38.55,30.66,55.14,31.83C359.5,487,373.49,487.82,385.22,487.82 M95.9,424.2
			l8.86-1.72c10.91-2.12,27.23-7.84,39.09-15.81c15.19-10.23,32.36-16,52.47-17.64l4.29-0.35v-4.31v-24.89v-4.67h-4.67h-65.78h-3.02
			l-1.24,2.76l-26.29,58.41L95.9,424.2 M142.47,414.38c-2.66,1.24-25.82,11.79-45.39,13.2l-2.78,0.2l-1.14,2.54l-37.1,82.45
			l-2.97,6.59h7.23h135.63h4.67v-4.67V398.69v-5.08l-5.06,0.42c-23.84,1.98-44.91,14.79-52.87,20.21
			C142.6,414.29,142.53,414.34,142.47,414.38 M205.61,519.38h4.67h289.41h7.56l-3.38-6.76l-21.16-42.31l-2.07-4.13l-4.16,2.02
			c-11.85,5.75-41.16,19.28-57.28,20.64c-5.34,0.45-9.06,1.05-12.67,1.63c-5.86,0.94-10.91,1.75-21.85,1.75
			c-9.85,0-23.59-0.7-42.01-2.13c-21.4-1.66-39.27-11.73-61.67-34.73c-7.07-7.25-13.45-14.76-19.63-22.01
			c-16.61-19.51-30.96-36.36-50.47-38.98l-5.3-0.71v5.34V514.7V519.38 M434.25,343.6H116.4L32.26,530.58h495.48L434.25,343.6
			L434.25,343.6z M408.52,396.4c-9.16,0-18.21-0.47-25.43-1.8c-20.88-3.85-22.06-19.64-22.7-35.12h61.69l17.76,35.51
			C431.41,395.68,419.88,396.4,408.52,396.4L408.52,396.4z M385.22,483.15c-10.96,0-23.99-0.71-44.15-2.14
			c-14.1-1-32.03-10.17-52.15-30.46c-22.89-23.08-46.11-64.99-78.63-66.65v-24.43h133.29c0.68,12.29,4.4,37.5,23.15,45.38
			c9.86,4.14,26.59,5.36,42.9,5.36c14.3,0,28.26-0.94,36.99-1.67l25.84,51.68c-10.64,5.84-35.33,18.34-55.58,20.78
			C405.04,482.44,396.17,483.15,385.22,483.15L385.22,483.15z M103.87,417.89l26.29-58.41h65.78v24.89
			c-22.52,1.84-40.22,8.68-54.7,18.43C129.98,410.37,114.35,415.86,103.87,417.89L103.87,417.89z M60.31,514.7l37.1-82.45
			c21.86-1.58,47.32-13.77,47.32-13.77c0.41-0.14,23.71-17.51,51.2-19.8V514.7H60.31L60.31,514.7z M210.29,514.7V398.98
			c24.58,3.3,41.62,33.18,67.38,59.62c20.82,21.38,39.77,34.19,64.66,36.13c20.21,1.57,33.22,2.14,42.38,2.14
			c18.09,0,21.14-2.23,34.91-3.4c16.67-1.41,45.65-14.65,58.93-21.1l21.16,42.31H210.29L210.29,514.7z"/>
	</g>
</g>
<g>
	<g>
		<path class="st2" d="M279.92,427.29c-14.55-27.46-98.63-186.59-115.14-227.87c-5.74-14.35-8.65-29.53-8.65-45.12
			c0-67.01,54.52-121.53,121.53-121.53S399.2,87.28,399.2,154.29c0,17.66-3.7,34.69-11.01,50.62
			C370.48,243.51,293.44,399.88,279.92,427.29z M280,107.55c-27.06,0-49.08,22.02-49.08,49.08c0,27.06,22.02,49.08,49.08,49.08
			c27.06,0,49.08-22.02,49.08-49.08C329.08,129.57,307.06,107.55,280,107.55z"/>
	</g>
	<g>
		<path d="M277.66,35.1c31.84,0,61.77,12.4,84.28,34.91c22.51,22.51,34.91,52.45,34.91,84.28c0,17.32-3.63,34.03-10.8,49.64
			c-16.95,36.96-88.38,182.03-106.21,218.22c-19.21-36.3-97.1-184.12-112.9-223.6c-5.63-14.07-8.48-28.96-8.48-44.25
			c0-31.84,12.4-61.77,34.91-84.28C215.89,47.5,245.82,35.1,277.66,35.1 M280,208.05c28.35,0,51.42-23.07,51.42-51.42
			s-23.07-51.42-51.42-51.42s-51.42,23.07-51.42,51.42S251.65,208.05,280,208.05 M277.66,30.42c-68.41,0-123.87,55.46-123.87,123.87
			c0,16.25,3.13,31.77,8.82,45.99C180.87,245.92,280,432.42,280,432.42s90.74-183.88,110.31-226.53
			c7.21-15.71,11.22-33.18,11.22-51.59C401.53,85.88,346.07,30.42,277.66,30.42L277.66,30.42z M280,203.37
			c-25.82,0-46.74-20.93-46.74-46.74s20.93-46.74,46.74-46.74s46.74,20.93,46.74,46.74S305.82,203.37,280,203.37L280,203.37z"/>
	</g>
</g>
</svg>
